HIERARCHY
ROOT hip
{
  OFFSET 0 0 0
  CHANNELS 6 Xposition Yposition Zposition Zrotation Yrotation Xrotation
  JOINT abdomen
  {
    OFFSET 0 20.6881 -0.73152
    CHANNELS 3 Zrotation Xrotation Yrotation
    JOINT chest
    {
      OFFSET 0 11.7043 -0.48768
      CHANNELS 3 Zrotation Xrotation Yrotation
      JOINT neck
      {
        OFFSET 0 22.1894 -2.19456
        CHANNELS 3 Zrotation Xrotation Yrotation
        JOINT head
        {
          OFFSET -0.24384 7.07133 1.2192
          CHANNELS 3 Zrotation Xrotation Yrotation
          JOINT leftEye
          {
            OFFSET 4.14528 8.04674 8.04672
            CHANNELS 3 Zrotation Xrotation Yrotation
            End Site
            {
              OFFSET 1 0 0
            }
          }
          JOINT rightEye
          {
            OFFSET -3.6576 8.04674 8.04672
            CHANNELS 3 Zrotation Xrotation Yrotation
            End Site
            {
              OFFSET 1 0 0
            }
          }
        }
      }
      JOINT rCollar
      {
        OFFSET -2.68224 19.2634 -4.8768
        CHANNELS 3 Zrotation Xrotation Yrotation
        JOINT rShldr
        {
          OFFSET -8.77824 -1.95073 1.46304
          CHANNELS 3 Zrotation Xrotation Yrotation
          JOINT rForeArm
          {
            OFFSET -28.1742 -1.7115 0.48768
            CHANNELS 3 Zrotation Xrotation Yrotation
            JOINT rHand
            {
              OFFSET -22.5879 0.773209 7.07136
              CHANNELS 3 Zrotation Xrotation Yrotation
              JOINT rThumb1
              {
                OFFSET -1.2192 -0.487915 3.41376
                CHANNELS 3 Zrotation Xrotation Yrotation
                JOINT rThumb2
                {
                  OFFSET -3.37035 -0.52449 3.41376
                  CHANNELS 3 Zrotation Xrotation Yrotation
                  End Site
                  {
                    OFFSET -1.78271 -1.18214 1.43049
                  }
                }
              }
              JOINT rIndex1
              {
                OFFSET -7.75947 0.938293 5.60832
                CHANNELS 3 Zrotation Xrotation Yrotation
                JOINT rIndex2
                {
                  OFFSET -2.54057 -0.884171 1.56538
                  CHANNELS 3 Zrotation Xrotation Yrotation
                  End Site
                  {
                    OFFSET -1.62519 -0.234802 1.16502
                  }
                }
              }
              JOINT rMid1
              {
                OFFSET -8.24714 1.18213 3.41376
                CHANNELS 3 Zrotation Xrotation Yrotation
                JOINT rMid2
                {
                  OFFSET -3.10165 -0.590103 1.0647
                  CHANNELS 3 Zrotation Xrotation Yrotation
                  End Site
                  {
                    OFFSET -2.48547 -0.328903 0.83742
                  }
                }
              }
              JOINT rRing1
              {
                OFFSET -8.82822 0.546677 1.51678
                CHANNELS 3 Zrotation Xrotation Yrotation
                JOINT rRing2
                {
                  OFFSET -2.60934 -0.819778 -0.0198488
                  CHANNELS 3 Zrotation Xrotation Yrotation
                  End Site
                  {
                    OFFSET -2.33842 -0.294052 0.168128
                  }
                }
              }
              JOINT rPinky1
              {
                OFFSET -8.27202 -0.0477905 -0.4584
                CHANNELS 3 Zrotation Xrotation Yrotation
                JOINT rPinky2
                {
                  OFFSET -1.82734 -0.647385 -0.700984
                  CHANNELS 3 Zrotation Xrotation Yrotation
                  End Site
                  {
                    OFFSET -1.69225 -0.51767 -0.607171
                  }
                }
              }
            }
          }
        }
      }
      JOINT lCollar
      {
        OFFSET 2.68224 19.2634 -4.8768
        CHANNELS 3 Zrotation Xrotation Yrotation
        JOINT lShldr
        {
          OFFSET 8.77824 -1.95073 1.46304
          CHANNELS 3 Zrotation Xrotation Yrotation
          JOINT lForeArm
          {
            OFFSET 28.1742 -1.7115 0.48768
            CHANNELS 3 Zrotation Xrotation Yrotation
            JOINT lHand
            {
              OFFSET 22.5879 0.773209 7.07136
              CHANNELS 3 Zrotation Xrotation Yrotation
              JOINT lThumb1
              {
                OFFSET 1.2192 -0.487915 3.41376
                CHANNELS 3 Zrotation Xrotation Yrotation
                JOINT lThumb2
                {
                  OFFSET 3.37035 -0.52449 3.41376
                  CHANNELS 3 Zrotation Xrotation Yrotation
                  End Site
                  {
                    OFFSET 1.78271 -1.18214 1.43049
                  }
                }
              }
              JOINT lIndex1
              {
                OFFSET 7.75947 0.938293 5.60832
                CHANNELS 3 Zrotation Xrotation Yrotation
                JOINT lIndex2
                {
                  OFFSET 2.54057 -0.884171 1.56538
                  CHANNELS 3 Zrotation Xrotation Yrotation
                  End Site
                  {
                    OFFSET 1.62519 -0.234802 1.16502
                  }
                }
              }
              JOINT lMid1
              {
                OFFSET 8.24714 1.18213 3.41376
                CHANNELS 3 Zrotation Xrotation Yrotation
                JOINT lMid2
                {
                  OFFSET 3.10165 -0.590103 1.0647
                  CHANNELS 3 Zrotation Xrotation Yrotation
                  End Site
                  {
                    OFFSET 2.48547 -0.328903 0.83742
                  }
                }
              }
              JOINT lRing1
              {
                OFFSET 8.82822 0.546677 1.51678
                CHANNELS 3 Zrotation Xrotation Yrotation
                JOINT lRing2
                {
                  OFFSET 2.60934 -0.819778 -0.0198488
                  CHANNELS 3 Zrotation Xrotation Yrotation
                  End Site
                  {
                    OFFSET 2.33842 -0.294052 0.168128
                  }
                }
              }
              JOINT lPinky1
              {
                OFFSET 8.27202 -0.0477905 -0.4584
                CHANNELS 3 Zrotation Xrotation Yrotation
                JOINT lPinky2
                {
                  OFFSET 1.82734 -0.647385 -0.700984
                  CHANNELS 3 Zrotation Xrotation Yrotation
                  End Site
                  {
                    OFFSET 1.69225 -0.51767 -0.607171
                  }
                }
              }
            }
          }
        }
      }
    }
  }
  JOINT rButtock
  {
    OFFSET -8.77824 4.35084 1.2192
    CHANNELS 3 Zrotation Xrotation Yrotation
    JOINT rThigh
    {
      OFFSET 0 -1.70687 -2.19456
      CHANNELS 3 Zrotation Xrotation Yrotation
      JOINT rShin
      {
        OFFSET 0 -36.8199 0.73152
        CHANNELS 3 Zrotation Xrotation Yrotation
        JOINT rFoot
        {
          OFFSET 0.73152 -45.1104 -5.12064
          CHANNELS 3 Zrotation Xrotation Yrotation
          End Site
          {
            OFFSET -1.1221 -3.69964 12.103
          }
        }
      }
    }
  }
  JOINT lButtock
  {
    OFFSET 8.77824 4.35084 1.2192
    CHANNELS 3 Zrotation Xrotation Yrotation
    JOINT lThigh
    {
      OFFSET 0 -1.70687 -2.19456
      CHANNELS 3 Zrotation Xrotation Yrotation
      JOINT lShin
      {
        OFFSET 0 -36.8199 0.73152
        CHANNELS 3 Zrotation Xrotation Yrotation
        JOINT lFoot
        {
          OFFSET -0.73152 -45.1104 -5.12064
          CHANNELS 3 Zrotation Xrotation Yrotation
          End Site
          {
            OFFSET 1.1221 -3.69964 12.103
          }
        }
      }
    }
  }
}
MOTION
Frames:	9
Frame Time:	0.00833333
-2.79312 84.112 32.929 -1.1479 2.2634 6.3948 1.64729 31.6103 -1.69318 -0.384928 -2.22511 -0.338821 -1.99503 -6.13731 -1.67848 5.94222 -0.550469 -2.5279 -0.0 0.0 0.0 -0.0 0.0 0.0 1.50826e-15 8.77399e-14 8.59006e-15 -17.6971 81.7775 98.2958 -25.7321 -46.7731 97.2121 -0.0910685 -8.57627 -1.21449 -2.3759e-09 -7.111e-09 3.23836e-09 -4.13167e-09 -1.22633e-08 5.59147e-09 -2.3759e-09 -7.11099e-09 3.23835e-09 7.73091 5.47488 0.417314 -2.3759e-09 -7.11099e-09 3.23836e-09 2.90554 0.965183 0.102902 -2.37589e-09 -7.11099e-09 3.23836e-09 10.2786 0.731801 0.0259123 -2.3759e-09 -7.11099e-09 3.23837e-09 2.22167 -0.733487 -0.20892 1.6429e-15 8.77383e-14 8.37807e-15 36.9092 61.2576 -132.352 24.2454 -49.0723 -102.498 1.93069 -36.1956 5.90297 1.37772e-09 -2.21824e-09 -1.99384e-09 2.44289e-09 -3.76299e-09 -3.40838e-09 1.37772e-09 -2.21824e-09 -1.99384e-09 -7.73091 5.47488 -0.417314 1.37773e-09 -2.21823e-09 -1.99384e-09 -2.90554 0.965183 -0.102902 1.37772e-09 -2.21823e-09 -1.99384e-09 -10.2786 0.731801 -0.0259123 1.37773e-09 -2.21823e-09 -1.99385e-09 -2.22167 -0.733487 0.20892 -2.03217e-16 0.0 -3.88251e-19 -6.30762 -3.24101 -1.50117 0.107528 1.08502 0.0691575 -3.73498 -11.5592 -15.0365 2.03217e-16 0.0 3.88251e-19 8.15768 -20.906 -0.398123 0.134229 27.0928 -0.500266 1.24252 -11.3525 4.76281
-2.80842 84.0332 32.9066 -1.1618 2.1633 6.262 1.53965 31.8711 -1.63242 -0.340437 -2.16029 -0.328018 -1.98983 -6.33122 -1.67381 5.9193 -0.498059 -2.51772 -0.0 0.0 0.0 -0.0 0.0 0.0 -1.2417e-14 7.95166e-14 7.85199e-15 -17.6971 81.7775 98.2958 -25.7321 -46.7731 97.2121 -0.0910685 -8.57627 -1.21449 -1.86652e-09 -5.39766e-09 2.40332e-09 -3.24486e-09 -9.30688e-09 4.14901e-09 -1.86651e-09 -5.39766e-09 2.40332e-09 7.73091 5.47488 0.417314 -1.86652e-09 -5.39766e-09 2.40332e-09 2.90554 0.965183 0.102902 -1.86651e-09 -5.39766e-09 2.40333e-09 10.2786 0.731801 0.0259123 -1.86651e-09 -5.39765e-09 2.40333e-09 2.22167 -0.733487 -0.20892 -1.22331e-14 7.95125e-14 7.65321e-15 36.9926 61.3604 -132.449 24.2184 -49.1107 -102.586 1.93007 -36.191 5.90196 1.02918e-09 -1.72251e-09 -1.55841e-09 1.82655e-09 -2.92238e-09 -2.66493e-09 1.02918e-09 -1.72251e-09 -1.55841e-09 -7.73091 5.47488 -0.417314 1.02918e-09 -1.72251e-09 -1.55841e-09 -2.90554 0.965183 -0.102902 1.02917e-09 -1.72251e-09 -1.55842e-09 -10.2786 0.731801 -0.0259123 1.02918e-09 -1.72251e-09 -1.55842e-09 -2.22167 -0.733487 0.20892 -2.03217e-16 0.0 -3.88251e-19 -6.29209 -3.11811 -1.35988 0.10634 1.11372 0.070169 -3.7468 -11.6358 -15.02 2.03217e-16 0.0 3.88251e-19 8.21618 -20.7767 -0.221232 0.13592 27.209 -0.502273 1.23439 -11.4468 4.69962
-2.80625 83.9365 32.8842 -1.1163 2.0613 6.1293 1.50738 31.9813 -1.59536 -0.39811 -2.10761 -0.320814 -1.98769 -6.36395 -1.67027 6.00717 -0.559857 -2.50634 -0.0 0.0 0.0 -0.0 0.0 0.0 -1.66728e-14 6.44089e-14 6.92602e-15 -17.6971 81.7775 98.2958 -25.7321 -46.7731 97.2121 -0.0910685 -8.57627 -1.21449 -1.28469e-09 -3.56605e-09 1.54639e-09 -2.23264e-09 -6.14747e-09 2.66908e-09 -1.28468e-09 -3.56605e-09 1.54639e-09 7.73091 5.47488 0.417314 -1.28469e-09 -3.56605e-09 1.54639e-09 2.90554 0.965183 0.102902 -1.28468e-09 -3.56605e-09 1.5464e-09 10.2786 0.731801 0.0259123 -1.28469e-09 -3.56605e-09 1.5464e-09 2.22167 -0.733487 -0.20892 -1.65408e-14 6.44047e-14 6.71869e-15 37.0932 61.4457 -132.498 24.127 -49.2353 -102.882 1.91326 -36.0596 5.87348 6.48514e-10 -1.1746e-09 -1.06689e-09 1.15329e-09 -1.99415e-09 -1.82564e-09 6.48514e-10 -1.1746e-09 -1.06688e-09 -7.73091 5.47488 -0.417314 6.48516e-10 -1.1746e-09 -1.06689e-09 -2.90554 0.965183 -0.102902 6.48509e-10 -1.1746e-09 -1.06689e-09 -10.2786 0.731801 -0.0259123 6.48517e-10 -1.1746e-09 -1.06689e-09 -2.22167 -0.733487 0.20892 -2.03217e-16 0.0 -3.88251e-19 -6.28979 -3.09198 -1.25934 0.105202 1.1591 0.0717603 -3.76349 -11.7236 -15.0187 2.03217e-16 0.0 3.88251e-19 8.22807 -20.8005 -0.114493 0.138213 27.4115 -0.506786 1.24966 -11.5897 4.71044
-2.80336 83.8397 32.8385 -1.0881 1.9712 6.0507 1.52348 32.0038 -1.56792 -0.518594 -2.06199 -0.314255 -1.99119 -6.29143 -1.67019 6.16704 -0.704732 -2.49788 -0.0 0.0 0.0 -0.0 0.0 0.0 -1.61226e-14 4.21442e-14 6.23997e-15 -17.6971 81.7775 98.2958 -25.7321 -46.7731 97.2121 -0.0910685 -8.57627 -1.21449 -5.62537e-10 -1.3704e-09 5.41122e-10 -9.76725e-10 -2.36078e-09 9.33217e-10 -5.62534e-10 -1.3704e-09 5.41117e-10 7.73091 5.47488 0.417314 -5.62539e-10 -1.3704e-09 5.4112e-10 2.90554 0.965183 0.102902 -5.62534e-10 -1.3704e-09 5.41126e-10 10.2786 0.731801 0.0259123 -5.6254e-10 -1.3704e-09 5.41131e-10 2.22167 -0.733487 -0.20892 -1.61064e-14 4.21411e-14 6.01013e-15 37.2089 61.5053 -132.52 23.9826 -49.4241 -103.341 1.88676 -35.8496 5.82825 1.95988e-10 -5.02183e-10 -4.59718e-10 3.52402e-10 -8.5492e-10 -7.88535e-10 1.95987e-10 -5.02179e-10 -4.59711e-10 -7.73091 5.47488 -0.417314 1.95986e-10 -5.02189e-10 -4.59727e-10 -2.90554 0.965183 -0.102902 1.95983e-10 -5.02181e-10 -4.59716e-10 -10.2786 0.731801 -0.0259123 1.95991e-10 -5.02181e-10 -4.59721e-10 -2.22167 -0.733487 0.20892 -2.03217e-16 0.0 -3.88251e-19 -6.29587 -3.11908 -1.18188 0.104097 1.21736 0.0738115 -3.78477 -11.8249 -15.0273 2.03217e-16 0.0 3.88251e-19 8.20995 -20.9164 -0.0462128 0.14109 27.6781 -0.513123 1.28099 -11.7712 4.76836
-2.80238 83.7653 32.7858 -1.0775 1.8631 5.9953 1.5257 31.9847 -1.4885 -0.669931 -2.01997 -0.295439 -2.03508 -6.20364 -1.69099 6.39787 -0.805408 -2.51836 -0.0 0.0 0.0 -0.0 0.0 0.0 -1.40448e-14 1.86866e-14 4.83179e-15 -17.6971 81.7775 98.2958 -25.7321 -46.7731 97.2121 -0.0910685 -8.57627 -1.21449 1.67393e-10 8.1964e-10 -4.57128e-10 2.92656e-10 1.41603e-09 -7.90456e-10 1.67395e-10 8.19643e-10 -4.57132e-10 7.73091 5.47488 0.417314 1.67391e-10 8.19642e-10 -4.5713e-10 2.90554 0.965183 0.102902 1.67396e-10 8.19641e-10 -4.57124e-10 10.2786 0.731801 0.0259123 1.67387e-10 8.1964e-10 -4.5712e-10 2.22167 -0.733487 -0.20892 -1.41556e-14 1.86849e-14 4.57011e-15 37.3005 61.5404 -132.506 23.8188 -49.6295 -103.854 1.86612 -35.6841 5.7928 -2.51793e-10 1.77498e-10 1.55923e-10 -4.40517e-10 2.96617e-10 2.63225e-10 -2.51795e-10 1.77501e-10 1.55934e-10 -7.73091 5.47488 -0.417314 -2.51797e-10 1.77485e-10 1.5591e-10 -2.90554 0.965183 -0.102902 -2.51798e-10 1.77498e-10 1.55927e-10 -10.2786 0.731801 -0.0259123 -2.5179e-10 1.77499e-10 1.55924e-10 -2.22167 -0.733487 0.20892 -2.03217e-16 0.0 -3.88251e-19 -6.32047 -3.16585 -1.07273 0.10294 1.27093 0.0755831 -3.80415 -11.9035 -15.0479 2.03217e-16 0.0 3.88251e-19 8.1791 -21.0271 0.0299728 0.143749 27.9263 -0.519308 1.3183 -11.9416 4.85124
-2.79903 83.7257 32.7436 -1.0435 1.6896 5.9729 1.45171 31.9701 -1.29551 -0.820209 -1.97805 -0.251464 -2.15408 -6.19053 -1.75011 6.69876 -0.734615 -2.59378 -0.0 0.0 0.0 -0.0 0.0 0.0 -1.37179e-14 3.88251e-19 1.73937e-15 -17.6971 81.7775 98.2958 -25.7321 -46.7731 97.2121 -0.0910685 -8.57627 -1.21449 7.72563e-10 2.63443e-09 -1.29299e-09 1.34528e-09 4.54577e-09 -2.23381e-09 7.72564e-10 2.63443e-09 -1.293e-09 7.73091 5.47488 0.417314 7.72561e-10 2.63443e-09 -1.293e-09 2.90554 0.965183 0.102902 7.72566e-10 2.63443e-09 -1.29299e-09 10.2786 0.731801 0.0259123 7.72555e-10 2.63443e-09 -1.29299e-09 2.22167 -0.733487 -0.20892 -1.39141e-14 -7.76503e-19 1.44119e-15 37.3288 61.5523 -132.448 23.6728 -49.8068 -104.304 1.86622 -35.6863 5.79317 -6.1822e-10 7.47205e-10 6.72869e-10 -1.08988e-09 1.26176e-09 1.14649e-09 -6.18223e-10 7.47207e-10 6.72881e-10 -7.73091 5.47488 -0.417314 -6.18226e-10 7.47189e-10 6.72853e-10 -2.90554 0.965183 -0.102902 -6.18225e-10 7.47204e-10 6.72873e-10 -10.2786 0.731801 -0.0259123 -6.18217e-10 7.47205e-10 6.72872e-10 -2.22167 -0.733487 0.20892 -2.03217e-16 0.0 -3.88251e-19 -6.37381 -3.19866 -0.877141 0.101653 1.30225 0.0763358 -3.81512 -11.9235 -15.0824 2.03217e-16 0.0 3.88251e-19 8.15251 -21.0349 0.160318 0.145318 28.0737 -0.523313 1.35103 -12.0511 4.93678
-2.79822 83.7105 32.7004 -1.0178 1.4815 5.9989 1.29235 31.9681 -0.934369 -0.976249 -1.94036 -0.168346 -2.40475 -6.28244 -1.87404 7.14214 -0.404204 -2.75939 -0.0 0.0 0.0 -0.0 0.0 0.0 -1.66117e-14 -1.38893e-14 -5.7368e-15 -17.6971 81.7775 98.2958 -25.7321 -46.7731 97.2121 -0.0910685 -8.57627 -1.21449 1.28008e-09 4.18088e-09 -2.03123e-09 2.22859e-09 7.21299e-09 -3.50879e-09 1.28008e-09 4.18088e-09 -2.03123e-09 7.73091 5.47488 0.417314 1.28008e-09 4.18088e-09 -2.03123e-09 2.90554 0.965183 0.102902 1.28009e-09 4.18088e-09 -2.03123e-09 10.2786 0.731801 0.0259123 1.28008e-09 4.18088e-09 -2.03122e-09 2.22167 -0.733487 -0.20892 -1.68364e-14 -1.38913e-14 -6.08467e-15 37.222 61.5245 -132.273 23.542 -49.9649 -104.703 1.89073 -35.8803 5.83494 -9.29717e-10 1.23372e-09 1.12054e-09 -1.64232e-09 2.08502e-09 1.91118e-09 -9.29719e-10 1.23372e-09 1.12055e-09 -7.73091 5.47488 -0.417314 -9.29721e-10 1.23371e-09 1.12053e-09 -2.90554 0.965183 -0.102902 -9.29722e-10 1.23372e-09 1.12055e-09 -10.2786 0.731801 -0.0259123 -9.29713e-10 1.23372e-09 1.12055e-09 -2.22167 -0.733487 0.20892 -2.03217e-16 0.0 -3.88251e-19 -6.44576 -3.21784 -0.55514 0.100181 1.30255 0.0755707 -3.81014 -11.8431 -15.1389 2.03217e-16 0.0 3.88251e-19 8.15628 -20.9104 0.369949 0.145445 28.095 -0.524612 1.37809 -12.076 5.03066
-2.79771 83.7165 32.6761 -0.9796 1.1785 6.0045 1.07867 31.9543 -0.450811 -1.15004 -1.90707 -0.0564841 -2.75351 -6.42919 -2.04631 7.70748 0.0997253 -2.99204 -0.0 0.0 0.0 -0.0 0.0 0.0 -2.07792e-14 -2.56416e-14 -1.62693e-14 -17.6971 81.7775 98.2958 -25.7321 -46.7731 97.2121 -0.0910685 -8.57627 -1.21449 1.73982e-09 5.58763e-09 -2.7193e-09 3.02909e-09 9.63937e-09 -4.69726e-09 1.73982e-09 5.58763e-09 -2.7193e-09 7.73091 5.47488 0.417314 1.73982e-09 5.58763e-09 -2.7193e-09 2.90554 0.965183 0.102902 1.73983e-09 5.58763e-09 -2.7193e-09 10.2786 0.731801 0.0259123 1.73982e-09 5.58763e-09 -2.71929e-09 2.22167 -0.733487 -0.20892 -2.10042e-14 -2.56452e-14 -1.66793e-14 37.0223 61.4615 -132.009 23.411 -50.1209 -105.097 1.93242 -36.2034 5.90515 -1.21152e-09 1.68022e-09 1.53677e-09 -2.14258e-09 2.83986e-09 2.62206e-09 -1.21153e-09 1.68023e-09 1.53677e-09 -7.73091 5.47488 -0.417314 -1.21153e-09 1.68022e-09 1.53676e-09 -2.90554 0.965183 -0.102902 -1.21153e-09 1.68022e-09 1.53677e-09 -10.2786 0.731801 -0.0259123 -1.21152e-09 1.68023e-09 1.53677e-09 -2.22167 -0.733487 0.20892 -2.03217e-16 0.0 -3.88251e-19 -6.53497 -3.23809 -0.144379 0.0985801 1.28255 0.0737826 -3.79427 -11.6922 -15.2139 2.03217e-16 0.0 3.88251e-19 8.17249 -20.7065 0.629339 0.144601 28.0352 -0.524259 1.40422 -12.0464 5.1408
-2.79993 83.761 32.712 -0.9103 0.6832 5.8961 0.808625 31.9257 0.0663779 -1.31744 -1.86877 0.0604533 -3.0997 -6.60008 -2.21978 8.25294 0.643124 -3.23007 -0.0 0.0 0.0 -0.0 0.0 0.0 -2.43735e-14 -3.33188e-14 -2.47797e-14 -17.6971 81.7775 98.2958 -25.7321 -46.7731 97.2121 -0.0910685 -8.57627 -1.21449 2.05338e-09 6.51766e-09 -3.17591e-09 3.57515e-09 1.12434e-08 -5.48592e-09 2.05338e-09 6.51766e-09 -3.17591e-09 7.73091 5.47488 0.417314 2.05338e-09 6.51766e-09 -3.17591e-09 2.90554 0.965183 0.102902 2.05339e-09 6.51766e-09 -3.17591e-09 10.2786 0.731801 0.0259123 2.05338e-09 6.51766e-09 -3.17591e-09 2.22167 -0.733487 -0.20892 -2.45835e-14 -3.33238e-14 -2.52457e-14 36.8607 61.3966 -131.802 23.3034 -50.2464 -105.419 1.99026 -36.6481 6.00234 -1.38526e-09 1.99407e-09 1.82697e-09 -2.45214e-09 3.37105e-09 3.11824e-09 -1.38526e-09 1.99407e-09 1.82697e-09 -7.73091 5.47488 -0.417314 -1.38526e-09 1.99406e-09 1.82697e-09 -2.90554 0.965183 -0.102902 -1.38526e-09 1.99407e-09 1.82697e-09 -10.2786 0.731801 -0.0259123 -1.38525e-09 1.99407e-09 1.82697e-09 -2.22167 -0.733487 0.20892 -2.03217e-16 0.0 -3.88251e-19 -6.66535 -3.24744 0.293449 0.0969313 1.25397 0.0717227 -3.78013 -11.5426 -15.2916 2.03217e-16 0.0 3.88251e-19 8.15181 -20.4491 0.902679 0.143119 27.9176 -0.522586 1.42724 -11.993 5.24818
